<svg xmlns="http://www.w3.org/2000/svg" viewBox="0 0 48.18 62.71" fill="currentColor"><defs><style>.cls-1{fill:none;}.cls-2{fill:#fff;}.cls-3{clip-path:url(#clip-path);}.cls-4{fill:#231f20;}</style><clipPath id="clip-path"><polygon class="cls-1" points="0 62.67 48.14 62.67 48.14 0.02 0.02 0 0 62.67"/></clipPath></defs><title>Asset 19</title><g id="Layer_2" data-name="Layer 2"><g id="Layer_1-2" data-name="Layer 1"><polygon class="cls-2" points="48.18 62.71 0 62.71 0 0 48.18 0.01 48.18 62.71"/><g class="cls-3"><path class="cls-4" d="M30,52.35a9.37,9.37,0,1,0,0-18.74"/></g><polygon class="cls-4" points="22.3 38.88 22.3 12.62 17.27 16.49 17.27 42.76 22.3 38.88"/><polygon class="cls-4" points="14.9 8.81 9.88 12.69 9.88 37.7 14.9 37.7 14.9 8.81"/><polygon class="cls-4" points="37.53 27.93 37.53 23.56 24.68 23.56 24.69 37.01 28.93 33.74 28.93 27.93 37.53 27.93"/><polygon class="cls-4" points="24.68 48.86 24.68 52.42 29.25 52.42 24.68 48.86"/><path class="cls-4" d="M2.49,2.5V60.21h43.2V2.5Zm40.7,55.33H5V5h38.2Z"/></g></g></svg>
