<svg style="vertical-align: unset;" height="0.71em" viewBox="0 0 80 24" xmlns="http://www.w3.org/2000/svg"><g fill="none" fill-rule="evenodd"><path fill="#D6143F" d="M17.096 0l-6.332 20.25h-.202L4.069 0H0l7.972 24h5.247L21 0z"/><path fill="#D6143F" d="M20 0v2.92h5.59v18.156H20V24h15v-2.924h-5.59V2.921H35V0zM41.017 11.326h4.573c2.425 0 3.603-1.094 3.603-3.28v-1.47c0-2.185-1.178-3.245-3.603-3.245h-4.573v7.995zM37.137 24V.156h9.042c4.572 0 7.102 2.731 7.102 7.173 0 4.44-2.53 7.174-7.102 7.174h-5.162V24h-3.88z"/><path fill="#231F20" d="M66.989 24h3.809V.154h-3.81z"/><path fill="#231F20" d="M56.803 13.955h24.18v-3.757h-24.18z"/></g></svg>
